:SAMPLES-PER-SECOND 30
:FULLY-SPECIFIED
:DEGREES
1
root  34.7653847 36.51865261 -14.85782683 7.910103321 -1.005284071 3.343318462
lowerback  -8.059474945 -0.1511931121 -0.02790993266
upperback  -3.515880108 0.2102279961 -2.932892799
thorax  0.8963720202 0.2333499938 -2.994250059
lowerneck  -14.93889999 1.886029959 0.9646840096
upperneck  17.28479958 1.150189996 4.388999939
head  7.767640114 0.9097211361 1.416612148
lclavicle  0 -4.497500157e-015 -2.743230041e-014
lhumerus  -45.80289841 26.13800049 68.66130066
lradius  -0.0126562221 -6.507048965e-006 30.37589836
lwrist  4.824992743e-007 -3.790274832e-007 -25.79579926
lhand  -4.413167194e-031 -36.85710144 -10.38479996
lfingers  90 7.125020027 -90
lthumb  94.73460718 -25.22747468 100.9968456
rclavicle  0 -4.497500157e-015 -2.743230041e-014
rhumerus  -62.96359634 -42.27819824 -42.93360519
rradius  -5.16745672e-007 2.214343908e-008 34.64789963
rwrist  -7.499573258e-005 0.03438235447 -145.6410065
rhand  -3.535513218e-031 -2.854949951 -7.66711998
rfingers  -90 -7.125020027 -90
rthumb  -86.61206786 -7.981945253 -66.91035963
rfemur  -11.0093832 15.77464771 14.16930389
rtibia  -1.336919546 0.409819901 20.81314278
rfoot  -0.1122916862 -19.40568161 -38.9928627
rtoes  4.138733712 19.58426543 -102.1819001
lfemur  -7.295407772 -17.89259911 -19.80803108
ltibia  2.819711447 0.01418650895 14.18926048
lfoot  0.5852892399 -25.30356026 35.61569214
ltoes  -8.724062091 -18.06748907 -116.3255407
2
root  34.7678177 36.51477483 -14.86121651 7.907637596 -1.045642734 3.327377081
lowerback  -8.092841148 -0.1511931121 -0.05235089734
upperback  -3.515880108 0.2102279961 -2.932892799
thorax  0.9267140031 0.2333499938 -2.983479977
lowerneck  -14.97270012 1.442639947 1.057389975
upperneck  17.36560059 1.237720013 4.311940193
head  7.805770874 1.230198145 1.416612148
lclavicle  0 -4.497500157e-015 -2.743230041e-014
lhumerus  -45.79240036 26.15229988 68.66139984
lradius  -0.0126562221 -6.507048965e-006 30.34410286
lwrist  4.824992743e-007 -3.790274832e-007 -25.79579926
lhand  -4.413426916e-031 -36.86159897 -10.43980026
lfingers  90 7.125020027 -90
lthumb  94.74829025 -25.28130286 101.0065857
rclavicle  0 -4.497500157e-015 -2.743230041e-014
rhumerus  -62.69400406 -42.11000061 -43.37349701
rradius  -5.16745672e-007 2.214343908e-008 34.73889923
rwrist  -7.499573258e-005 0.03438235447 -145.7870026
rhand  -1.767945559e-031 -2.975209951 -7.610770226
rfingers  -90 -7.125020027 -90
rthumb  -86.61159503 -8.027599693 -67.02436996
rfemur  -11.0093832 15.78526402 14.16504383
rtibia  -1.3185637 0.3993879259 20.81109238
rfoot  -0.1228103191 -19.46133041 -38.98763657
rtoes  4.186268932 19.57453898 -102.3237484
lfemur  -7.299342632 -17.95666122 -19.79250717
ltibia  2.790942192 0.0002544382005 14.20993614
lfoot  0.5776570439 -25.28130722 35.68330002
ltoes  -8.726770532 -18.0662148 -116.3342741
3
root  34.77015157 36.51366346 -14.86308481 7.884114742 -1.085582972 3.325671911
lowerback  -8.126350403 -0.1511931121 -0.06641975045
upperback  -3.515880108 0.200763002 -2.932892799
thorax  0.9354100227 0.2333499938 -2.966860056
lowerneck  -14.93200016 1.430549979 1.057659984
upperneck  17.34370041 1.223250031 4.309140205
head  7.803050041 1.220800042 1.404719949
lclavicle  0 -4.497500157e-015 -2.743230041e-014
lhumerus  -45.82300186 26.1685009 68.64330292
lradius  -0.0126562221 -6.507048965e-006 30.32649994
lwrist  4.824992743e-007 -3.790274832e-007 -25.79129982
lhand  -4.412260932e-031 -36.84140015 -10.50790024
lfingers  90 7.125020027 -90
lthumb  94.7532762 -25.34888405 100.9911416
rclavicle  0 -4.497500157e-015 -2.743230041e-014
rhumerus  -62.41759491 -41.90710068 -43.79210281
rradius  -5.16745672e-007 2.214343908e-008 34.81629944
rwrist  -7.499573258e-005 0.03438235447 -145.9669952
rhand  -1.767802125e-031 -2.884380102 -7.58355999
rfingers  -90 -7.125020027 -90
rthumb  -86.58434033 -8.057315508 -66.93446639
rfemur  -11.0093832 15.76732445 14.16000462
rtibia  -1.31208849 0.3841300309 20.82910728
rfoot  -0.1299005151 -19.52170563 -38.94471741
rtoes  4.133481781 19.5853329 -102.1662321
lfemur  -7.269551754 -17.94820023 -19.80204201
ltibia  2.785036802 -0.009634917602 14.20198917
lfoot  0.5711672902 -25.26245499 35.70768738
ltoes  -8.730316873 -18.06454556 -116.3457101
4
root  34.77280684 36.51125149 -14.86549227 7.87970829 -1.136726975 3.324839115
lowerback  -8.139109612 -0.1511931121 -0.06012729183
upperback  -3.515880108 0.2019920051 -2.931420088
thorax  0.9385150075 0.2333499938 -2.972379923
lowerneck  -14.94859982 1.403419971 1.043730021
upperneck  17.39410019 1.186759949 4.324269772
head  7.823209763 1.206150055 1.409199953
lclavicle  0 -4.497500157e-015 -2.743230041e-014
lhumerus  -45.85250092 26.13069916 68.65299988
lradius  -0.0126562221 -6.507048965e-006 30.33708191
lwrist  4.824992743e-007 -3.790274832e-007 -25.75099945
lhand  -4.412474444e-031 -36.8451004 -10.40429974
lfingers  90 7.125020027 -90
lthumb  94.73315096 -25.24698361 100.9857853
rclavicle  0 -4.497500157e-015 -2.743230041e-014
rhumerus  -62.2397995 -41.80170059 -44.06569672
rradius  -5.16745672e-007 2.214343908e-008 34.90219879
rwrist  -7.499573258e-005 0.03438235447 -146.1360016
rhand  -1.767773088e-031 -2.865639925 -7.639100075
rfingers  -90 -7.125020027 -90
rthumb  -86.60290143 -8.007207182 -66.91926836
rfemur  -11.01150894 15.78790188 14.15145016
rtibia  -1.306616187 0.3645843863 20.82769775
rfoot  -0.1311156601 -19.57063675 -38.92689896
rtoes  4.116659007 19.5887426 -102.1160506
lfemur  -7.263692379 -17.97775078 -19.80447388
ltibia  2.779814005 -0.030248845 14.2054739
lfoot  0.593459785 -25.21715164 35.81368637
ltoes  -8.709355485 -18.07439955 -116.2781298
5
root  34.7758586 36.5109271 -14.86729449 7.896314144 -1.200343132 3.324203014
lowerback  -8.119319916 -0.1540110111 -0.07473318279
upperback  -3.515880108 0.2005870044 -2.922709942
thorax  0.9306349754 0.2333499938 -2.955189943
lowerneck  -15.00720024 1.370859981 0.9902889729
upperneck  17.4741993 1.144729972 4.367340088
head  7.86026001 1.189990044 1.429859996
lclavicle  0 -4.497500157e-015 -2.743230041e-014
lhumerus  -45.87110138 26.12240028 68.66200256
lradius  -0.0126562221 -6.507048965e-006 30.33550072
lwrist  4.824992743e-007 -3.790274832e-007 -25.74690056
lhand  -4.416052048e-031 -36.9070015 -10.66629982
lfingers  90 7.125020027 -90
lthumb  94.81749295 -25.50201483 101.0757362
rclavicle  0 -4.497500157e-015 -2.743230041e-014
rhumerus  -62.04850006 -41.70029831 -44.31449509
rradius  -5.16745672e-007 2.214343908e-008 34.98690033
rwrist  -7.499573258e-005 0.03438235447 -146.2810059
rhand  -1.767598079e-031 -2.749979973 -7.59059
rfingers  -90 -7.125020027 -90
rthumb  -86.56258015 -8.057789603 -66.80391846
rfemur  -11.04294109 15.81464672 14.13212776
rtibia  -1.303869486 0.3545465767 20.8237133
rfoot  -0.1219019666 -19.57038116 -38.90003586
rtoes  4.117511011 19.58857026 -102.1185919
lfemur  -7.289095402 -17.96381378 -19.80521965
ltibia  2.768353939 -0.03035673127 14.2305212
lfoot  0.6146546602 -25.23286057 35.87062073
ltoes  -8.695965129 -18.08067879 -116.2349774
